<?xml version="1.0" encoding="UTF-8"?>
<svg enable-background="new 0 0 89.758 89.758" version="1.1" viewBox="0 0 89.758 89.758" xml:space="preserve" xmlns="http://www.w3.org/2000/svg">
    <g fill="#6A453B">
        <path d="m58.255 23.88h-26.752c-4.27 0-7.744 3.474-7.744 7.744v26.752c0 4.27 3.474 7.745 7.744 7.745h26.752c4.27 0 7.745-3.474 7.745-7.745v-26.752c0-4.27-3.474-7.744-7.745-7.744zm-13.376 35.026c-7.667 0-13.905-6.238-13.905-13.906 0-7.667 6.238-13.905 13.905-13.905 7.668 0 13.906 6.238 13.906 13.905s-6.239 13.906-13.906 13.906zm14.353-24.936c-1.815 0-3.291-1.476-3.291-3.29s1.476-3.29 3.291-3.29c1.814 0 3.29 1.476 3.29 3.29s-1.476 3.29-3.29 3.29z" />
        <path d="m44.879 36.971c-4.426 0-8.03 3.602-8.03 8.028 0 4.428 3.604 8.031 8.03 8.031 4.428 0 8.029-3.603 8.029-8.031 0-4.425-3.602-8.028-8.029-8.028z" />
        <path d="m44.879 0c-24.785 0-44.879 20.094-44.879 44.879s20.094 44.879 44.879 44.879 44.879-20.094 44.879-44.879-20.094-44.879-44.879-44.879zm26.996 58.376c0 7.511-6.109 13.62-13.62 13.62h-26.752c-7.51 0-13.62-6.109-13.62-13.62v-26.752c0-7.51 6.11-13.62 13.62-13.62h26.752c7.511 0 13.62 6.11 13.62 13.62v26.752z" />
    </g>
</svg>