<?xml version="1.0" encoding="UTF-8"?>
<!DOCTYPE svg  PUBLIC '-//W3C//DTD SVG 1.1//EN'  'http://www.w3.org/Graphics/SVG/1.1/DTD/svg11.dtd'>
<svg width="450pt" height="450pt" version="1.1" viewBox="0 0 450 450" xmlns="http://www.w3.org/2000/svg">
<path d="m0 0h450v443.53c-1.06-9.99-8.28-18.3-17.2-22.39-42.18-19.71-84.37-39.4-126.57-59.08-0.77-10.44-3.13-20.78-7.23-30.42-0.49-1.75-2.4-2.17-3.84-2.83-3.72-1.57-7.89-2.29-11.14-4.79-1.55-1.15-1.53-3.23-1.69-4.96-0.48-8.7-0.7-17.42-1.14-26.13-0.13-1.92 0.1-3.87 1.12-5.54 7.89-14.12 13.46-29.51 16.73-45.35 2.4-0.6 5.12-1.22 6.38-3.6 3.64-6.14 5.24-13.2 7.27-19.97 2.17-8 4.12-16.13 4.62-24.43-0.06-3.25 0.17-7.3-2.57-9.6-1.46-0.3-2.93-0.54-4.41-0.7 1.63-14.52 2.78-29.09 4.21-43.63 0.72-6.67 1.57-13.42 0.45-20.11-1.22-7.68-3.09-15.73-8.17-21.86-2.01-2.46-5.29-3.14-7.83-4.87-1.55-4.27-2.38-9.1-6.03-12.23-8.2-7.53-17.35-14.3-27.76-18.43-13.34-5.47-27.91-6.77-42.18-6.82-5.64-0.07-11.4 0.44-16.88-1.17-4.17-1.04-7.93-3.16-11.6-5.32 2.21 5.12 6.02 9.29 10.86 12.06-6.24-0.17-12.18-2.07-18-4.15 2.73 2.07 5.64 3.9 8.74 5.34-12.1 2.36-24.95 5.67-33.87 14.77-4.73 4.49-6.77 10.81-9.18 16.68-1.84 4.89-7.05 7.03-10.03 11.06-6.32 8.08-9.54 18.73-8.18 28.95 1.64 16.56 3.16 33.14 4.67 49.72-1.92 0.4-4.6 0.03-5.59 2.18-1.45 2.76-1.27 6.02-1.15 9.05 0.74 10.42 3.61 20.53 6.58 30.49 1.51 4.66 2.86 9.51 5.67 13.59 1.28 2.02 3.79 2.35 5.89 2.99 3.34 15.83 8.88 31.25 16.79 45.38 1.62 2.61 1.03 5.75 0.97 8.65-0.55 8.27-0.46 16.58-1.16 24.84 0.01 2.32-2.07 3.69-3.94 4.57-3.85 1.76-7.88 3.06-11.85 4.51-4.43 10.08-7.29 20.91-7.84 31.93-38.09 17.99-76.34 35.64-114.48 53.52-7.63 3.77-16.18 6.43-22.15 12.81-4.08 4.15-6.55 9.68-7.29 15.43v-443.67z" fill="#eeeeee"/>
<path d="m194.54 49.3c3.67 2.16 7.43 4.28 11.6 5.32 5.48 1.61 11.24 1.1 16.88 1.17 14.27 0.05 28.84 1.35 42.18 6.82 10.41 4.13 19.56 10.9 27.76 18.43 3.65 3.13 4.48 7.96 6.03 12.23 2.54 1.73 5.82 2.41 7.83 4.87 5.08 6.13 6.95 14.18 8.17 21.86 1.12 6.69 0.27 13.44-0.45 20.11-1.43 14.54-2.58 29.11-4.21 43.63 1.48 0.16 2.95 0.4 4.41 0.7 2.74 2.3 2.51 6.35 2.57 9.6-0.5 8.3-2.45 16.43-4.62 24.43-2.03 6.77-3.63 13.83-7.27 19.97-1.26 2.38-3.98 3-6.38 3.6-3.27 15.84-8.84 31.23-16.73 45.35-1.02 1.67-1.25 3.62-1.12 5.54 0.44 8.71 0.66 17.43 1.14 26.13 0.16 1.73 0.14 3.81 1.69 4.96 3.25 2.5 7.42 3.22 11.14 4.79 1.44 0.66 3.35 1.08 3.84 2.83 4.1 9.64 6.46 19.98 7.23 30.42 42.2 19.68 84.39 39.37 126.57 59.08 8.92 4.09 16.14 12.4 17.2 22.39v6.47h-450v-6.33c0.74-5.75 3.21-11.28 7.29-15.43 5.97-6.38 14.52-9.04 22.15-12.81 38.14-17.88 76.39-35.53 114.48-53.52 0.55-11.02 3.41-21.85 7.84-31.93 3.97-1.45 8-2.75 11.85-4.51 1.87-0.88 3.95-2.25 3.94-4.57 0.7-8.26 0.61-16.57 1.16-24.84 0.06-2.9 0.65-6.04-0.97-8.65-7.91-14.13-13.45-29.55-16.79-45.38-2.1-0.64-4.61-0.97-5.89-2.99-2.81-4.08-4.16-8.93-5.67-13.59-2.97-9.96-5.84-20.07-6.58-30.49-0.12-3.03-0.3-6.29 1.15-9.05 0.99-2.15 3.67-1.78 5.59-2.18-1.51-16.58-3.03-33.16-4.67-49.72-1.36-10.22 1.86-20.87 8.18-28.95 2.98-4.03 8.19-6.17 10.03-11.06 2.41-5.87 4.45-12.19 9.18-16.68 8.92-9.1 21.77-12.41 33.87-14.77-3.1-1.44-6.01-3.27-8.74-5.34 5.82 2.08 11.76 3.98 18 4.15-4.84-2.77-8.65-6.94-10.86-12.06z" fill="#353535"/>
</svg>
