<?xml version="1.0" encoding="UTF-8"?>
<svg enable-background="new 0 0 496 496" version="1.1" viewBox="0 0 496 496" xml:space="preserve" xmlns="http://www.w3.org/2000/svg">
<circle cx="248" cy="24" r="24" fill="#383A39"/>
<circle cx="248" cy="472" r="24" fill="#ECEEEE"/>
<circle cx="136" cy="53.6" r="24" fill="#77807F"/>
<path d="m380.8 430.4c6.4 11.2 2.4 25.6-8.8 32.8-11.2 6.4-25.6 2.4-32.8-8.8-6.4-11.2-2.4-25.6 8.8-32.8 11.2-6.4 26.4-2.4 32.8 8.8z" fill="#F2F4F4"/>
<path d="m65.6 115.2c11.2 6.4 15.2 20.8 8.8 32.8-6.4 11.2-20.8 15.2-32.8 8.8-11.2-6.4-15.2-20.8-8.8-32.8s21.6-15.2 32.8-8.8z" fill="#9FAAA9"/>
<path d="m454.4 339.2c11.2 6.4 15.2 20.8 8.8 32.8-6.4 11.2-20.8 15.2-32.8 8.8-11.2-6.4-15.2-20.8-8.8-32.8 6.4-11.2 20.8-15.2 32.8-8.8z" fill="#F2F7F7"/>
<circle cx="24" cy="248" r="24" fill="#B2BBBA"/>
<circle cx="472" cy="248" r="24" fill="#fff"/>
<path d="m41.6 339.2c11.2-6.4 25.6-2.4 32.8 8.8 6.4 11.2 2.4 25.6-8.8 32.8-11.2 6.4-25.6 2.4-32.8-8.8s-2.4-25.6 8.8-32.8z" fill="#C5CCCB"/>
<path d="m430.4 115.2c11.2-6.4 25.6-2.4 32.8 8.8 6.4 11.2 2.4 25.6-8.8 32.8-11.2 6.4-25.6 2.4-32.8-8.8-6.4-11.2-2.4-26.4 8.8-32.8z"/>
<path d="m115.2 430.4c6.4-11.2 20.8-15.2 32.8-8.8 11.2 6.4 15.2 20.8 8.8 32.8-6.4 11.2-20.8 15.2-32.8 8.8-11.2-7.2-15.2-21.6-8.8-32.8z" fill="#D9DDDD"/>
<path d="m339.2 41.6c6.4-11.2 20.8-15.2 32.8-8.8 11.2 6.4 15.2 20.8 8.8 32.8-6.4 11.2-20.8 15.2-32.8 8.8-11.2-6.4-15.2-20.8-8.8-32.8z" fill="#111"/>
</svg>
